<svg xmlns="http://www.w3.org/2000/svg" version="1.1" xmlns:xlink="http://www.w3.org/1999/xlink" xmlns:svgjs="http://svgjs.dev/svgjs" width="64" height="64"><svg width="64" height="64" viewBox="0 0 64 64" fill="none" xmlns="http://www.w3.org/2000/svg">
<g clip-path="url(#clip0_8_12)">
<path d="M0 0H64V64H0V0Z" fill="#F7DF1E"></path>
<path d="M36 26.2551L32.2549 23.6039C31.2689 25.5725 29.9875 27.0186 27.7208 27.0186C25.8148 27.0186 24.5995 25.8535 24.5995 24.2466C24.5995 22.3184 25.848 21.6354 27.9508 20.5109L29.1004 19.9078C32.419 18.1809 34.6202 16.0116 34.6202 11.432C34.6202 7.21387 31.9918 4 27.8848 4C24.9607 4 22.858 5.24552 21.3468 8.49936L24.9282 11.3116C25.7169 9.58429 26.5707 8.90145 27.885 8.90145C29.2321 8.90145 30.0864 9.94593 30.0864 11.3116C30.0864 12.9987 29.2321 13.682 27.2609 14.7265L26.1111 15.3289C22.2012 17.3779 20 19.4667 20 24.1664C20 29.2284 23.2526 32 27.6223 32C31.8934 32 34.653 29.5092 36 26.2551Z" fill="#EA2D2E"></path>
<path d="M35 30.4862L36.8725 28.4031C37.3655 29.9498 38.0062 31.086 39.1396 31.086C40.0926 31.086 40.7002 30.1706 40.7002 28.908C40.7002 27.393 40.076 26.8563 39.0246 25.9729L38.4498 25.499C36.7905 24.1422 35.6899 22.4377 35.6899 18.8394C35.6899 15.5252 37.0041 13 39.0576 13C40.5197 13 41.571 13.9786 42.3266 16.5352L40.5359 18.7448C40.1416 17.3877 39.7146 16.8511 39.0575 16.8511C38.3839 16.8511 37.9568 17.6718 37.9568 18.7448C37.9568 20.0704 38.3839 20.6073 39.3695 21.428L39.9444 21.9013C41.8994 23.5112 43 25.1524 43 28.845C43 32.8223 41.3737 35 39.1889 35C37.0533 35 35.6735 33.0429 35 30.4862Z" fill="#EA2D2E"></path>
<path d="M26.4335 42.6325L23.8299 41C21.1883 41.4726 19 42.4034 19 44.0071C19 45.7829 21.4907 47 26.9625 47L45 47L45 44.9953L27.0371 44.9953C24.3958 44.9953 23.7168 44.5799 23.7168 43.9212C23.7168 43.2339 24.9619 42.9474 26.4335 42.6325Z" fill="#0074BD"></path>
<path d="M23.203 54.1766L18.2284 52C13.1812 52.6301 9 53.8712 9 56.0094C9 58.3772 13.7589 60 24.2138 60L51.1181 60L51.1181 57.3271L24.3565 57.3271C19.3097 57.3271 18.0123 56.7732 18.0123 55.8949C18.0123 54.9786 20.3914 54.5966 23.203 54.1766Z" fill="#0074BD"></path>
<path d="M27.2098 36.3604L24.6143 35C21.981 35.3938 19.7995 36.1695 19.7995 37.5059C19.7995 38.9857 22.2824 40 27.7371 40L45.7184 40L45.7184 38.3294L27.8116 38.3294C25.1785 38.3294 24.5016 37.9833 24.5016 37.4343C24.5016 36.8616 25.7428 36.6229 27.2098 36.3604Z" fill="#0074BD"></path>
<path d="M30.718 49.9045L28.7153 48C26.6833 48.5513 25 49.6373 25 51.5083C25 53.58 26.9159 55 31.125 55L45 55L45 52.6612L31.1824 52.6612C29.1506 52.6612 28.6283 52.1766 28.6283 51.408C28.6283 50.6063 29.5861 50.272 30.718 49.9045Z" fill="#0074BD"></path>
<path d="M48.741 44.7565L46.9386 45.9608C47.6109 46.9394 48.8014 47.6884 50.6855 47.5052C52.7717 47.3023 54.0912 46.1897 53.8486 44.0508L53.049 37L50.6938 37.229L51.4902 44.2506C51.6073 45.2831 51.1493 45.596 50.3754 45.6712C49.5681 45.7498 49.1763 45.2958 48.741 44.7565Z" fill="#0074BD"></path>
</g>
<defs>
<clipPath id="SvgjsClipPath1015">
<rect width="64" height="64" fill="white"></rect>
</clipPath>
</defs>
</svg><style>@media (prefers-color-scheme: light) { :root { filter: none; } }
@media (prefers-color-scheme: dark) { :root { filter: none; } }
</style></svg>